<?xml version="1.0" encoding="UTF-8"?>
<svg width="295px" height="82px" viewBox="0 0 295 82" version="1.1" xmlns="http://www.w3.org/2000/svg" xmlns:xlink="http://www.w3.org/1999/xlink">
    <!-- Generator: Sketch 41.2 (35397) - http://www.bohemiancoding.com/sketch -->
    <title>Apiours</title>
    <desc>Created with Sketch.</desc>
    <defs></defs>
    <g id="Page-1" stroke="none" stroke-width="1" fill="none" fill-rule="evenodd">
        <g id="Apiours">
            <g id="Apiours-(1)" transform="translate(12.000000, 18.000000)">
                <path d="M2.3278,45.8496 C2.7762,45.8496 3.0964,45.5294 3.2244,45.2732 L20.5813992,5.02341833 L38.0026,45.2732 C38.1306,45.5294 38.4508,45.8496 38.8992,45.8496 L40.5644,45.8496 C41.269,45.8496 41.269,45.4654 41.1408,45.081 L21.6062,0.5036 C21.414,0.1194 21.0938,0.0552 20.7736,0.0552 L20.5814,0.0552 C20.2612,0.0552 19.941,0.2474 19.8128,0.5036 L0.086,45.081 C-0.106,45.5934 0.086,45.8496 0.5344,45.8496 L2.3278,45.8496 Z" id="Fill-85-Copy-2" fill="#FFFFFF"></path>
                <path d="M52.1056682,32.9200001 L52.1056682,44.1828807 C52.1056682,44.6229435 51.7092834,45 51.0485731,45 L49.8590058,45 C49.3965912,45 49,44.6229435 49,44.1828807 L49,1.8171193 C49,1.37705649 49.3965912,1 49.8590058,1 L64.0661329,1 C72.2600128,1 79,7.34852432 79,15.0800471 C79,22.93719 72.2600128,29.3485243 64.1321627,29.3485243 L57.0999985,29.3485243 L57.0999985,26.4571036 L63.9281973,26.4571036 C70.4040655,26.4571036 75.888662,21.3657614 75.888662,15.0172371 C75.888662,8.85714286 70.4040655,3.95423076 63.8621676,3.95423076 L52.0999985,3.95423076 L52.0999985,25.7285518 L52.0999985,32.9200001 L52.1056682,32.9200001 Z" id="Fill-87" fill="#FFFFFF"></path>
                <path d="M86.3588,45.017 C86.3588,45.4654 86.743,45.8496 87.1914,45.8496 L88.5364,45.8496 C88.9848,45.8496 89.433,45.5294 89.433,45.017 L89.433,1.8486 C89.433,1.4002 89.0488,1.016 88.6004,1.016 L87.1914,1.016 C86.743,1.016 86.3588,1.4002 86.3588,1.8486 L86.3588,45.017 L86.3588,45.017 Z" id="Fill-88" fill="#FFFFFF"></path>
                <path d="M99.8088,23.4968 C99.8088,36.3704 110.0566,46.49 122.8662,46.49 C135.7398,46.49 145.9874,36.3704 145.9874,23.4968 C145.9874,10.6872 135.7398,0.3756 122.8662,0.3756 C110.0566,0.3756 99.8088,10.6872 99.8088,23.4968 L99.8088,23.4968 Z M102.627,23.4968 C102.627,12.2884 111.6578,3.1936 122.8662,3.1936 C134.0746,3.1936 143.1694,12.2884 143.1694,23.4968 C143.1694,34.7052 134.0746,43.672 122.8662,43.672 C111.6578,43.672 102.627,34.7052 102.627,23.4968 L102.627,23.4968 Z" id="Fill-89" fill="#4A4A4A" opacity="0.8"></path>
                <path d="M155.8508,29.5174 C155.8508,39.3168 162.4478,46.49 172.5674,46.49 C182.751,46.49 189.412,39.3168 189.412,29.5174 L189.412,1.8486 C189.412,1.4002 189.0276,1.016 188.5794,1.016 L187.2984,1.016 C186.658,1.016 186.4018,1.3362 186.4018,1.8486 L186.4018,29.2612 C186.4018,37.5234 181.1498,43.5438 172.5674,43.5438 C164.049,43.5438 158.861,37.4594 158.861,29.1972 L158.861,1.8486 C158.861,1.4002 158.4768,1.016 158.0284,1.016 L156.6834,1.016 C156.2352,1.016 155.8508,1.4002 155.8508,1.8486 L155.8508,29.5174 L155.8508,29.5174 Z" id="Fill-90" fill="#4A4A4A" opacity="0.8"></path>
                <path d="M205.980011,27.965723 L205.913172,44.1828807 C205.913172,44.6229435 205.541356,45 204.921404,45 L203.805763,45 C203.371816,45 203,44.6229435 203,44.1828807 L203,1.8171193 C203,1.37705649 203.309879,1 203.805763,1 L219.177579,1 C226.739709,1 233,6.78284144 233,14.4513579 C233,20.8000785 228.661114,25.8914207 222.772639,27.5886656 L231.822228,43.8686342 C232.1323,44.3715071 232.008232,45 231.388475,45 L229.466877,45 C229.033123,45 228.785182,44.8113736 228.599177,44.4343171 L219.611525,27.9657221 C218.805763,28.0285322 218.123874,28.0285322 217.318111,28.0285322 C217.318111,28.0285322 213.772693,28.0088918 211.144152,27.9943306 L210.980011,25.3885479 L219.058607,25.3885479 C225.009018,25.3885479 230.029599,20.6742622 230.029599,14.4513579 C230.029599,8.48008636 225.009018,3.89142072 218.996669,3.89142072 L205.980011,3.89142072 L205.980011,25.1942739 L205.980011,27.965723 Z" id="Fill-91" fill="#4A4A4A" opacity="0.8"></path>
                <path d="M241.611,41.2382 C242.4438,42.0068 247.5676,46.49 255.1892,46.49 C262.5548,46.49 269.1518,41.4944 269.1518,35.0896 C269.1518,27.66 263.5796,24.5856 254.805,21.5754 C248.3362,19.4618 244.173,17.092 244.173,11.648 C244.173,7.9972 247.1192,3.1296 254.9972,3.1296 C259.9288,3.1296 264.22,6.0118 264.4122,6.1398 C265.0526,6.5242 265.437,6.332 265.8212,5.8196 C265.9494,5.5634 266.1414,5.2432 266.3336,4.987 C266.782,4.2824 266.3336,3.8342 266.0774,3.642 C266.0774,3.642 261.402,0.3756 255.0612,0.3756 C245.0696,0.3756 241.2268,6.9084 241.2268,11.712 C241.2268,19.0776 246.1586,21.7036 253.588,24.3294 C261.3378,26.9554 266.0134,29.5174 266.0134,35.2176 C266.0134,39.8932 261.0816,43.8 255.2534,43.8 C248.7844,43.8 244.045,39.4448 243.4044,38.8684 C242.892,38.42 242.4438,38.6122 241.9954,39.1246 L241.419,39.8932 C240.9066,40.5976 241.2268,40.918 241.611,41.2382 L241.611,41.2382 Z" id="Fill-92" fill="#4A4A4A" opacity="0.8"></path>
                <polyline id="Path-90" stroke-opacity="0.5" stroke="#4A4A4A" stroke-width="2.6" stroke-linecap="round" stroke-linejoin="round" points="122.505631 8 122.505631 24 132.663269 13.9737778"></polyline>
            </g>
        </g>
    </g>
</svg>